<svg width="98" height="17" viewBox="0 0 98 17" fill="none" xmlns="http://www.w3.org/2000/svg">
<path d="M0.408 0.423999H14.064V2.488H0.408V0.423999ZM6.072 2.248H8.4V16H6.072V2.248ZM14.3323 4.024H16.6363V16H14.3323V4.024ZM20.6923 6.064C19.8603 6.064 19.1483 6.256 18.5563 6.64C17.9803 7.024 17.5163 7.496 17.1643 8.056C16.8283 8.616 16.6043 9.152 16.4923 9.664L16.4683 8.296C16.4843 8.136 16.5243 7.888 16.5883 7.552C16.6683 7.2 16.8043 6.808 16.9963 6.376C17.1883 5.944 17.4443 5.536 17.7643 5.152C18.0843 4.752 18.4843 4.424 18.9643 4.168C19.4443 3.912 20.0203 3.784 20.6923 3.784V6.064ZM32.0098 12.112H34.1938C34.0658 12.896 33.7618 13.6 33.2818 14.224C32.8018 14.848 32.1698 15.344 31.3858 15.712C30.6018 16.08 29.6818 16.264 28.6258 16.264C27.3778 16.264 26.2658 16 25.2898 15.472C24.3138 14.944 23.5458 14.216 22.9858 13.288C22.4258 12.36 22.1458 11.28 22.1458 10.048C22.1458 8.8 22.4178 7.712 22.9618 6.784C23.5058 5.84 24.2578 5.104 25.2178 4.576C26.1778 4.048 27.2738 3.784 28.5058 3.784C29.8018 3.784 30.8898 4.04 31.7698 4.552C32.6498 5.064 33.2978 5.824 33.7138 6.832C34.1458 7.824 34.3218 9.064 34.2418 10.552H24.4258C24.5058 11.272 24.7218 11.912 25.0738 12.472C25.4418 13.032 25.9218 13.472 26.5138 13.792C27.1218 14.112 27.8178 14.272 28.6018 14.272C29.4818 14.272 30.2178 14.072 30.8098 13.672C31.4018 13.272 31.8018 12.752 32.0098 12.112ZM28.5298 5.752C27.4898 5.752 26.6258 6.032 25.9378 6.592C25.2498 7.136 24.7938 7.864 24.5698 8.776H31.9378C31.8738 7.8 31.5218 7.056 30.8818 6.544C30.2418 6.016 29.4578 5.752 28.5298 5.752ZM41.6123 16.24C40.5883 16.24 39.6523 15.976 38.8043 15.448C37.9563 14.92 37.2843 14.192 36.7883 13.264C36.2923 12.32 36.0443 11.24 36.0443 10.024C36.0443 8.808 36.2923 7.736 36.7883 6.808C37.3003 5.864 37.9963 5.128 38.8763 4.6C39.7563 4.056 40.7403 3.784 41.8283 3.784C43.0283 3.784 43.9563 4.064 44.6123 4.624C45.2843 5.184 45.7483 5.936 46.0043 6.88C46.2763 7.824 46.4123 8.872 46.4123 10.024C46.4123 10.664 46.3323 11.344 46.1723 12.064C46.0123 12.784 45.7563 13.464 45.4043 14.104C45.0523 14.744 44.5643 15.264 43.9403 15.664C43.3163 16.048 42.5403 16.24 41.6123 16.24ZM42.2603 14.248C43.1083 14.248 43.8203 14.064 44.3963 13.696C44.9883 13.312 45.4283 12.8 45.7163 12.16C46.0043 11.52 46.1483 10.808 46.1483 10.024C46.1483 9.176 45.9963 8.432 45.6923 7.792C45.4043 7.152 44.9643 6.656 44.3723 6.304C43.7963 5.952 43.0923 5.776 42.2603 5.776C41.0123 5.776 40.0443 6.176 39.3563 6.976C38.6843 7.776 38.3483 8.792 38.3483 10.024C38.3483 10.856 38.5163 11.592 38.8523 12.232C39.1883 12.856 39.6443 13.352 40.2203 13.72C40.8123 14.072 41.4923 14.248 42.2603 14.248ZM46.1483 4.024H48.4523V16H46.3403C46.3403 16 46.3243 15.856 46.2923 15.568C46.2603 15.264 46.2283 14.904 46.1963 14.488C46.1643 14.072 46.1483 13.704 46.1483 13.384V4.024ZM50.9293 12.112H53.0413C53.1213 12.752 53.4093 13.28 53.9053 13.696C54.4013 14.096 55.0973 14.296 55.9933 14.296C56.5693 14.296 57.0173 14.232 57.3373 14.104C57.6573 13.96 57.8813 13.768 58.0093 13.528C58.1533 13.288 58.2253 13.024 58.2253 12.736C58.2253 12.368 58.1293 12.088 57.9373 11.896C57.7453 11.688 57.4733 11.52 57.1213 11.392C56.7693 11.248 56.3533 11.112 55.8733 10.984C55.3453 10.84 54.8173 10.672 54.2893 10.48C53.7613 10.288 53.2733 10.056 52.8253 9.784C52.3933 9.512 52.0413 9.176 51.7693 8.776C51.5133 8.36 51.3853 7.856 51.3853 7.264C51.3853 6.768 51.4893 6.304 51.6973 5.872C51.9213 5.44 52.2333 5.072 52.6333 4.768C53.0493 4.448 53.5293 4.208 54.0733 4.048C54.6173 3.872 55.2173 3.784 55.8733 3.784C56.7853 3.784 57.5533 3.952 58.1773 4.288C58.8013 4.608 59.2733 5.064 59.5933 5.656C59.9293 6.248 60.1053 6.928 60.1213 7.696H58.1053C57.9933 7.024 57.7613 6.536 57.4093 6.232C57.0573 5.912 56.5293 5.752 55.8253 5.752C55.1373 5.752 54.6093 5.888 54.2413 6.16C53.8733 6.432 53.6893 6.8 53.6893 7.264C53.6893 7.616 53.8173 7.904 54.0733 8.128C54.3293 8.336 54.6733 8.52 55.1053 8.68C55.5373 8.84 56.0253 9.008 56.5693 9.184C57.0813 9.36 57.5693 9.544 58.0333 9.736C58.5133 9.912 58.9373 10.128 59.3053 10.384C59.6893 10.624 59.9853 10.944 60.1933 11.344C60.4173 11.728 60.5293 12.208 60.5293 12.784C60.5293 13.488 60.3533 14.104 60.0013 14.632C59.6493 15.144 59.1373 15.544 58.4653 15.832C57.8093 16.12 57.0093 16.264 56.0653 16.264C55.2013 16.264 54.4653 16.16 53.8573 15.952C53.2653 15.744 52.7613 15.472 52.3453 15.136C51.9453 14.8 51.6333 14.448 51.4093 14.08C51.2013 13.696 51.0573 13.328 50.9773 12.976C50.9133 12.624 50.8973 12.336 50.9293 12.112ZM74.2457 16H71.9657V4.024H74.2457V16ZM72.0857 10.36L72.1097 11.08C72.0937 11.288 72.0377 11.6 71.9417 12.016C71.8617 12.416 71.7177 12.856 71.5097 13.336C71.3177 13.816 71.0457 14.28 70.6937 14.728C70.3577 15.176 69.9257 15.544 69.3977 15.832C68.8697 16.12 68.2297 16.264 67.4777 16.264C66.9657 16.264 66.4377 16.192 65.8937 16.048C65.3657 15.904 64.8777 15.664 64.4297 15.328C63.9817 14.992 63.6217 14.536 63.3497 13.96C63.0777 13.368 62.9417 12.632 62.9417 11.752V4.024H65.2457V11.272C65.2457 12.008 65.3577 12.584 65.5817 13C65.8217 13.416 66.1577 13.712 66.5897 13.888C67.0217 14.064 67.5097 14.152 68.0537 14.152C68.8857 14.152 69.5817 13.952 70.1417 13.552C70.7177 13.136 71.1657 12.64 71.4857 12.064C71.8057 11.472 72.0057 10.904 72.0857 10.36ZM77.262 4.024H79.566V16H77.262V4.024ZM83.622 6.064C82.79 6.064 82.078 6.256 81.486 6.64C80.91 7.024 80.446 7.496 80.094 8.056C79.758 8.616 79.534 9.152 79.422 9.664L79.398 8.296C79.414 8.136 79.454 7.888 79.518 7.552C79.598 7.2 79.734 6.808 79.926 6.376C80.118 5.944 80.374 5.536 80.694 5.152C81.014 4.752 81.414 4.424 81.894 4.168C82.374 3.912 82.95 3.784 83.622 3.784V6.064ZM94.9395 12.112H97.1235C96.9955 12.896 96.6915 13.6 96.2115 14.224C95.7315 14.848 95.0995 15.344 94.3155 15.712C93.5315 16.08 92.6115 16.264 91.5555 16.264C90.3075 16.264 89.1955 16 88.2195 15.472C87.2435 14.944 86.4755 14.216 85.9155 13.288C85.3555 12.36 85.0755 11.28 85.0755 10.048C85.0755 8.8 85.3475 7.712 85.8915 6.784C86.4355 5.84 87.1875 5.104 88.1475 4.576C89.1075 4.048 90.2035 3.784 91.4355 3.784C92.7315 3.784 93.8195 4.04 94.6995 4.552C95.5795 5.064 96.2275 5.824 96.6435 6.832C97.0755 7.824 97.2515 9.064 97.1715 10.552H87.3555C87.4355 11.272 87.6515 11.912 88.0035 12.472C88.3715 13.032 88.8515 13.472 89.4435 13.792C90.0515 14.112 90.7475 14.272 91.5315 14.272C92.4115 14.272 93.1475 14.072 93.7395 13.672C94.3315 13.272 94.7315 12.752 94.9395 12.112ZM91.4595 5.752C90.4195 5.752 89.5555 6.032 88.8675 6.592C88.1795 7.136 87.7235 7.864 87.4995 8.776H94.8675C94.8035 7.8 94.4515 7.056 93.8115 6.544C93.1715 6.016 92.3875 5.752 91.4595 5.752Z" fill="#E63876"/>
</svg>
